<?xml version="1.0" encoding="UTF-8" standalone="no"?>
<svg
   id="Layer_2"
   data-name="Layer 2"
   viewBox="0 0 1313.65 237.13"
   version="1.1"
   sodipodi:docname="logo_text_light.svg"
   inkscape:version="1.3.2 (1:1.3.2+202311252150+091e20ef0f)"
   xmlns:inkscape="http://www.inkscape.org/namespaces/inkscape"
   xmlns:sodipodi="http://sodipodi.sourceforge.net/DTD/sodipodi-0.dtd"
   xmlns:xlink="http://www.w3.org/1999/xlink"
   xmlns="http://www.w3.org/2000/svg"
   xmlns:svg="http://www.w3.org/2000/svg">
  <sodipodi:namedview
     id="namedview12"
     pagecolor="#ffffff"
     bordercolor="#000000"
     borderopacity="0.25"
     inkscape:showpageshadow="2"
     inkscape:pageopacity="0.0"
     inkscape:pagecheckerboard="0"
     inkscape:deskcolor="#d1d1d1"
     inkscape:zoom="0.33103997"
     inkscape:cx="614.72939"
     inkscape:cy="116.30015"
     inkscape:window-width="1366"
     inkscape:window-height="651"
     inkscape:window-x="0"
     inkscape:window-y="32"
     inkscape:window-maximized="1"
     inkscape:current-layer="Layer_2" />
  <defs
     id="defs4">
    <style
       id="style1">.cls-1{fill:url(#White_Black);}.cls-2{fill:url(#White_Black-2);}.cls-3{fill:url(#White_Black-3);}.cls-4{mask:url(#mask);}.cls-5{mask:url(#mask-2);}.cls-6{mask:url(#mask-3);}.cls-7{fill:#fff;}</style>
    <linearGradient
       id="White_Black"
       x1="-3091.62"
       y1="1087.01"
       x2="-3242.36"
       y2="985.74"
       gradientTransform="translate(-1237.09 -348.5) rotate(-180)"
       gradientUnits="userSpaceOnUse">
      <stop
         offset="0"
         stop-color="#fff"
         id="stop1" />
      <stop
         offset="1"
         stop-color="#231f20"
         id="stop2" />
    </linearGradient>
    <linearGradient
       id="White_Black-2"
       x1="2944.24"
       y1="1429.35"
       x2="2458.42"
       y2="1102.96"
       gradientTransform="translate(-3177.9 -3507.38) rotate(90)"
       xlink:href="#White_Black" />
    <linearGradient
       id="White_Black-3"
       x1="3265.1"
       y1="300.42"
       x2="2779.27"
       y2="-25.97"
       gradientTransform="translate(-7226.66 -1558.39)"
       xlink:href="#White_Black" />
    <mask
       id="mask"
       x="1901.8"
       y="-1460.12"
       width="168.2"
       height="109.01"
       maskUnits="userSpaceOnUse">
      <g
         transform="translate(-0.87 -59.01)"
         id="g2">
        <rect
           class="cls-1"
           x="1907.64"
           y="-1391.65"
           width="158.25"
           height="90.1"
           transform="translate(182.2 235.84) rotate(-7.12)"
           id="rect2" />
      </g>
    </mask>
    <mask
       id="mask-2"
       x="-4497.67"
       y="-1319.24"
       width="351.34"
       height="542.08"
       maskUnits="userSpaceOnUse">
      <g
         transform="translate(-0.87 -59.01)"
         id="g3">
        <rect
           class="cls-2"
           x="-4466.32"
           y="-1244.2"
           width="290.37"
           height="510.03"
           transform="translate(89.28 -543.15) rotate(-7.12)"
           id="rect3" />
      </g>
    </mask>
    <mask
       id="mask-3"
       x="-4659.48"
       y="-1778.77"
       width="542.08"
       height="351.34"
       maskUnits="userSpaceOnUse">
      <g
         transform="translate(-0.87 -59.01)"
         id="g4">
        <rect
           class="cls-3"
           x="-4642.58"
           y="-1689.28"
           width="510.03"
           height="290.37"
           transform="translate(157.54 -555.66) rotate(-7.12)"
           id="rect4" />
      </g>
    </mask>
  </defs>
  <path
     d="m 76.767255,180.73325 q -20.80605,0 -36.111649,-9.566 -15.06645,-9.80515 -23.4367,-28.93715 -8.3702496,-19.37115 -8.3702496,-48.069152 0,-28.458849 9.5659996,-47.590849 9.80515,-19.371149 26.067349,-29.176299 16.2622,-9.8051496 36.11165,-9.8051496 13.153249,0 22.240945,2.3915 9.0877,2.3914996 14.8273,5.2612996 5.7396,2.63065 8.37025,4.3047 l -8.6094,26.306499 Q 111.444,42.02625 102.8346,39.15645 q -8.609396,-2.8698 -17.697096,-2.8698 -15.305599,0 -24.871599,7.413649 -9.32685,7.1745 -13.63155,20.32775 -4.304699,12.9141 -4.304699,30.132899 0,19.610302 4.065549,32.524402 4.3047,12.67495 12.67495,19.132 8.37025,6.2179 20.32775,6.2179 2.630649,0 6.217899,-0.4783 3.58725,-0.4783 6.6962,-0.71745 V 90.334548 h 32.763546 v 82.745902 q -5.7396,2.3915 -18.41455,5.02215 -12.435796,2.63065 -29.893745,2.63065 z M 137.98953,177.146 q 5.97875,-24.3933 11.9575,-46.63425 5.97875,-22.24095 11.9575,-42.568702 5.97875,-20.566899 11.71835,-39.459749 5.7396,-19.131999 11.4792,-37.068249 h 35.8725 q 5.7396,17.93625 11.71835,37.307399 5.97875,19.37115 11.71835,39.938049 5.7396,20.566902 11.4792,42.807852 5.7396,22.0018 11.24005,45.67765 h -35.3942 l -7.6528,-38.264 h -44.24275 l -7.6528,38.264 z m 48.06915,-65.5271 h 32.28525 q -1.9132,-11.957502 -4.3047,-22.719252 -2.3915,-10.761749 -5.2613,-21.762649 -2.8698,-11.24005 -6.45705,-23.675849 -3.58725,12.435799 -6.45705,23.675849 -2.8698,11.0009 -5.2613,21.762649 -2.3915,10.76175 -4.54385,22.719252 z M 319.98255,177.146 V 38.67815 H 276.2181 v -27.2631 h 120.5316 v 27.2631 H 352.98525 V 177.146 Z m 97.81221,0 v -27.2631 h 36.3508 V 38.67815 h -36.3508 v -27.2631 h 105.46515 v 27.2631 h -35.8725 V 149.8829 h 35.8725 v 27.2631 z m 170.03554,0 V 38.67815 h -43.76445 v -27.2631 h 120.5316 v 27.2631 H 620.833 V 177.146 Z m 150.66439,3.58725 q -19.132,0 -32.76355,-9.80515 -13.3924,-9.80515 -20.32775,-29.1763 -6.93535,-19.37115 -6.93535,-47.590852 0,-28.458849 7.1745,-47.590849 7.1745,-19.371149 20.5669,-29.176299 13.3924,-9.8051496 32.0461,-9.8051496 19.37115,0 32.76355,9.8051496 13.3924,9.80515 20.0886,29.176299 6.93535,19.132 6.93535,47.590849 0,28.219702 -7.1745,47.590852 -6.93535,19.37115 -20.32775,29.1763 -13.15325,9.80515 -32.0461,9.80515 z m -0.23915,-28.698 q 11.24005,0 16.7405,-7.89195 5.7396,-7.89195 7.6528,-21.0452 1.9132,-13.15325 1.9132,-28.937152 0,-16.262199 -1.9132,-29.176299 -1.67405,-13.15325 -7.41365,-20.80605 -5.50045,-7.891949 -16.97965,-7.891949 -11.24005,0 -16.97965,7.891949 -5.50045,7.89195 -7.41365,21.0452 -1.9132,12.9141 -1.9132,28.937149 0,16.023052 1.67405,29.176302 1.9132,13.15325 7.6528,21.0452 5.7396,7.6528 16.97965,7.6528 z M 951.57706,177.146 V 11.41505 h 26.3065 q 5.97875,9.32685 11.9575,20.0886 6.2179,10.76175 11.95754,22.001799 5.9787,11.0009 11.24,21.76265 5.2613,10.761749 9.8052,20.566899 4.783,9.805152 8.1311,17.457952 V 11.41505 h 29.6546 V 177.146 h -26.3065 q -5.5005,-13.63155 -11.7184,-27.2631 -6.2179,-13.8707 -12.9141,-27.50225 -6.457,-13.8707 -13.63154,-27.741402 -7.1745,-13.870699 -14.8273,-27.502249 V 177.146 Z m 138.46774,0 V 11.41505 h 100.443 v 27.2631 h -67.6795 v 37.307399 h 58.8309 v 27.263101 h -58.8309 v 46.63425 h 73.4191 v 27.2631 z m 192.0373,3.58725 q -20.8061,0 -36.1117,-9.566 -15.0664,-9.80515 -23.4367,-28.93715 -8.3702,-19.37115 -8.3702,-48.069152 0,-28.458849 9.566,-47.590849 9.8051,-19.371149 26.0673,-29.176299 16.2622,-9.8051496 36.1117,-9.8051496 13.1532,0 22.2409,2.3915 9.0877,2.3914996 14.8273,5.2612996 5.7396,2.63065 8.3703,4.3047 l -8.6094,26.306499 q -5.9788,-3.826399 -14.5882,-6.696199 -8.6094,-2.8698 -17.6971,-2.8698 -15.3056,0 -24.8716,7.413649 -9.3268,7.1745 -13.6315,20.32775 -4.3047,12.9141 -4.3047,30.132899 0,19.610302 4.0655,32.524402 4.3047,12.67495 12.675,19.132 8.3702,6.2179 20.3277,6.2179 2.6307,0 6.2179,-0.4783 3.5873,-0.4783 6.6962,-0.71745 V 90.334548 h 32.7636 v 82.745902 q -5.7396,2.3915 -18.4146,5.02215 -12.4358,2.63065 -29.8937,2.63065 z m 73.1798,-3.58725 V 13.80655 q 6.4571,-1.67405 14.349,-2.63065 8.1311,-0.9566 15.7839,-1.1957496 7.6528,-0.4783 12.9141,-0.4783 28.4589,0 45.4385,13.3923996 17.2188,13.15325 17.2188,40.894649 0,14.58815 -5.9787,26.306499 -5.7396,11.718352 -19.6103,17.936252 6.2179,9.0877 12.9141,21.0452 6.9353,11.71835 13.1532,24.3933 6.2179,12.4358 10.5226,23.67585 h -34.6767 q -3.8264,-10.5226 -9.0877,-20.5669 -5.0222,-10.28345 -10.7618,-20.32775 -5.7396,-10.0443 -11.9575,-20.0886 -0.9566,0 -1.9132,0 -0.7174,0 -1.674,0 h -13.6316 V 177.146 Z m 33.0027,-88.485502 h 7.1745 q 11.4792,0 18.4146,-2.8698 7.1745,-3.108949 10.2834,-8.609399 3.3481,-5.7396 3.3481,-13.63155 0,-8.84855 -3.8264,-14.349 -3.5872,-5.50045 -10.2834,-8.131099 -6.4571,-2.8698 -15.0665,-2.8698 -1.674,0 -4.5438,0.23915 -2.8698,0 -5.5005,0.4783 z m 153.7733,92.072752 q -19.132,0 -32.7635,-9.80515 -13.3924,-9.80515 -20.3278,-29.1763 -6.9353,-19.37115 -6.9353,-47.590852 0,-28.458849 7.1745,-47.590849 7.1745,-19.371149 20.5669,-29.176299 13.3924,-9.8051496 32.0461,-9.8051496 19.3711,0 32.7635,9.8051496 13.3924,9.80515 20.0886,29.176299 6.9354,19.132 6.9354,47.590849 0,28.219702 -7.1745,47.590852 -6.9354,19.37115 -20.3278,29.1763 -13.1532,9.80515 -32.0461,9.80515 z m -0.2391,-28.698 q 11.24,0 16.7405,-7.89195 5.7396,-7.89195 7.6528,-21.0452 1.9132,-13.15325 1.9132,-28.937152 0,-16.262199 -1.9132,-29.176299 -1.6741,-13.15325 -7.4137,-20.80605 -5.5004,-7.891949 -16.9796,-7.891949 -11.2401,0 -16.9797,7.891949 -5.5004,7.89195 -7.4136,21.0452 -1.9132,12.9141 -1.9132,28.937149 0,16.023052 1.674,29.176302 1.9132,13.15325 7.6528,21.0452 5.7396,7.6528 16.9797,7.6528 z"
     id="text12"
     style="font-size:239.15px;font-family:'Ubuntu Mono';-inkscape-font-specification:'Ubuntu Mono, @wght=700';font-variation-settings:'wght' 700;stroke-width:1.10991;fill:#ffffff"
     transform="scale(0.81194158,1.2316157)"
     aria-label="GATITO NEGRO" />
</svg>
